# xmcd
#
# Track frame offsets: 
#        150
#        26472
#        52997
#        82842
#        107705
#        113127
#        120037
#        132610
#        133780
#        142665
#        163362
#        167852
#        182990
#
# Disc length: 2919 seconds
#
# Revision: 1
# Processed by: cddbd v1.5.2PL0 Copyright (c) Steve Scherf et al.
# Submitted via: ExactAudioCopy v0.99pb5
#
DISCID=aa0b650d
DTITLE=Johnny Copeland and His Texas Blues Machine - The Three Sides Of 
DTITLE=Johnny Clyde Copeland
DYEAR=1993
DGENRE=Blues
TTITLE0=Cut Off My Right Arm
TTITLE1=When Rain Starts Falling
TTITLE2=Nobody But You
TTITLE3=Texas Party
TTITLE4=As Real As It Gets (Commercial)
TTITLE5=Short Interview (#1)
TTITLE6=Daily Bread
TTITLE7=Acceptance of "Bluesman Of The Year"
TTITLE8=Shuffle In C
TTITLE9=Johnny's Gone
TTITLE10=Short Interview (#2)
TTITLE11=I'm A Boogie Woogie Man
TTITLE12=My Woman Has A Black Cat Bone
EXTD=YEAR: 1993
EXTT0=
EXTT1=
EXTT2=
EXTT3=
EXTT4=
EXTT5=
EXTT6=
EXTT7=
EXTT8=
EXTT9=
EXTT10=
EXTT11=
EXTT12=
PLAYORDER=
